<svg viewBox="0 0 24 24" fill="none" xmlns="http://www.w3.org/2000/svg">
<path d="M18 18.86H17.24C16.44 18.86 15.68 19.17 15.12 19.73L13.41 21.42C12.63 22.19 11.36 22.19 10.58 21.42L8.87 19.73C8.31 19.17 7.54 18.86 6.75 18.86H6C4.34 18.86 3 17.53 3 15.89V4.97C3 3.33 4.34 2 6 2H18C19.66 2 21 3.33 21 4.97V15.88C21 17.52 19.66 18.86 18 18.86Z" stroke="currentColor" stroke-width="1.5" stroke-miterlimit="10" stroke-linecap="round" stroke-linejoin="round"/>
<path d="M12.0701 8.95005C12.0301 8.95005 11.97 8.95005 11.92 8.95005C10.87 8.91005 10.04 8.06005 10.04 7.00005C10.04 5.92005 10.9101 5.05005 11.9901 5.05005C13.0701 5.05005 13.9401 5.93005 13.9401 7.00005C13.9501 8.06005 13.1201 8.92005 12.0701 8.95005Z" stroke="#00BA38" stroke-width="1.5" stroke-linecap="round" stroke-linejoin="round"/>
<path d="M9.24994 11.96C7.91994 12.85 7.91994 14.3 9.24994 15.19C10.7599 16.2 13.2399 16.2 14.7499 15.19C16.0799 14.3 16.0799 12.85 14.7499 11.96C13.2399 10.96 10.7699 10.96 9.24994 11.96Z" stroke="currentColor" stroke-width="1.5" stroke-linecap="round" stroke-linejoin="round"/>
</svg>
