<svg viewBox="0 0 24 24" fill="none" xmlns="http://www.w3.org/2000/svg">
<path d="M4 7.00512L4 17.0051C4 20.8351 4.92 21.9051 8.5 21.9951C8.5 20.0651 10.07 18.5051 12 18.5051C13.93 18.5051 15.49 20.0651 15.5 21.9951C19.08 21.9051 20 20.8351 20 17.0051L20 7.00512C20 3.00512 19 2.00512 15 2.00512L9 2.00512C5 2.00512 4 3.00512 4 7.00512Z" stroke="currentColor" stroke-width="1.5" stroke-linecap="round" stroke-linejoin="round"/>
<path d="M4 15.0068L7.5 15.0068" stroke="currentColor" stroke-width="1.5" stroke-linecap="round" stroke-linejoin="round"/>
<path d="M16.5 15.0068L20 15.0068" stroke="currentColor" stroke-width="1.5" stroke-linecap="round" stroke-linejoin="round"/>
<path d="M9.32997 8.97498L10.58 8.35498C10.7 8.29498 10.79 8.17498 10.81 8.04498L11.01 6.66498C11.06 6.32498 11.48 6.18498 11.72 6.43498L12.69 7.43498C12.78 7.53498 12.92 7.57498 13.06 7.55498L14.43 7.31498C14.77 7.25498 15.03 7.61498 14.87 7.91498L14.22 9.14498C14.16 9.26498 14.16 9.41498 14.22 9.53498L14.87 10.765C15.03 11.075 14.77 11.425 14.43 11.365L13.06 11.125C12.92 11.105 12.79 11.145 12.69 11.245L11.72 12.235C11.48 12.485 11.06 12.345 11.01 12.005L10.81 10.625C10.79 10.485 10.71 10.375 10.58 10.315L9.32997 9.70498C9.01997 9.56498 9.01997 9.12498 9.32997 8.97498Z" stroke="currentColor" stroke-width="1.5" stroke-linecap="round" stroke-linejoin="round"/>
</svg>
