<svg viewBox="0 0 24 24" fill="none" xmlns="http://www.w3.org/2000/svg">
<g clip-path="url(#clip0_1_103)">
<path d="M17.5399 8.31001C18.8986 8.31001 20 7.20863 20 5.85001C20 4.49139 18.8986 3.39001 17.5399 3.39001C16.1813 3.39001 15.08 4.49139 15.08 5.85001C15.08 7.20863 16.1813 8.31001 17.5399 8.31001Z" stroke="currentColor" stroke-width="1.5" stroke-miterlimit="10" stroke-linecap="round" stroke-linejoin="round"/>
<path d="M6.46001 8.31001C7.81863 8.31001 8.92 7.20863 8.92 5.85001C8.92 4.49139 7.81863 3.39001 6.46001 3.39001C5.10139 3.39001 4 4.49139 4 5.85001C4 7.20863 5.10139 8.31001 6.46001 8.31001Z" stroke="currentColor" stroke-width="1.5" stroke-miterlimit="10" stroke-linecap="round" stroke-linejoin="round"/>
<path d="M17.5399 20.61C18.8986 20.61 20 19.5086 20 18.15C20 16.7914 18.8986 15.69 17.5399 15.69C16.1813 15.69 15.08 16.7914 15.08 18.15C15.08 19.5086 16.1813 20.61 17.5399 20.61Z" stroke="currentColor" stroke-width="1.5" stroke-miterlimit="10" stroke-linecap="round" stroke-linejoin="round"/>
<path d="M6.46001 20.61C7.81863 20.61 8.92 19.5086 8.92 18.15C8.92 16.7914 7.81863 15.69 6.46001 15.69C5.10139 15.69 4 16.7914 4 18.15C4 19.5086 5.10139 20.61 6.46001 20.61Z" stroke="currentColor" stroke-width="1.5" stroke-miterlimit="10" stroke-linecap="round" stroke-linejoin="round"/>
</g>
</svg>
