<svg viewBox="0 0 508 380" fill="none" xmlns="http://www.w3.org/2000/svg">
<g clip-path="url(#clip0_20_561)">
<rect opacity="0.1" x="249" y="225" width="142" height="48" fill="currentColor"/>
<path d="M247.718 224.625H392.5" stroke="currentColor" stroke-width="4" stroke-linecap="round" stroke-linejoin="round"/>
<path d="M247.718 275.375H392.5" stroke="currentColor" stroke-width="4" stroke-linecap="round" stroke-linejoin="round"/>
<path d="M294.698 322.428V177.573" stroke="currentColor" stroke-width="4" stroke-linecap="round" stroke-linejoin="round" stroke-dasharray="8 8"/>
<path d="M345.448 322.428V177.573" stroke="currentColor" stroke-width="4" stroke-linecap="round" stroke-linejoin="round" stroke-dasharray="8 8"/>
</g>
<rect x="247.5" y="177.5" width="145" height="145" rx="40" stroke="currentColor" stroke-width="4" stroke-linecap="round" stroke-linejoin="round"/>
<path d="M133.584 272L131.342 263.719H133.295L134.693 270.078H134.732L136.35 263.719H138.217L139.834 270.078H139.881L141.279 263.719H143.201L140.959 272H138.912L137.279 265.945H137.24L135.615 272H133.584Z" fill="currentColor"/>
<path d="M126.276 272.164C123.838 272.164 122.268 270.539 122.268 267.859V267.844C122.268 265.188 123.862 263.547 126.268 263.547C128.682 263.547 130.284 265.172 130.284 267.844V267.859C130.284 270.547 128.706 272.164 126.276 272.164ZM126.284 270.594C127.51 270.594 128.299 269.594 128.299 267.859V267.844C128.299 266.117 127.503 265.125 126.268 265.125C125.057 265.125 124.253 266.125 124.253 267.844V267.859C124.253 269.602 125.042 270.594 126.284 270.594Z" fill="currentColor"/>
<path d="M112.374 272V260.727H116.874C119.28 260.727 120.749 262.062 120.749 264.242V264.258C120.749 265.773 119.937 267 118.624 267.477L121.085 272H118.788L116.569 267.781H114.39V272H112.374ZM114.39 266.188H116.663C117.937 266.188 118.687 265.484 118.687 264.273V264.258C118.687 263.078 117.89 262.359 116.624 262.359H114.39V266.188Z" fill="currentColor"/>
<path d="M106.199 274.898C104.003 274.898 102.621 273.898 102.386 272.602L102.371 272.531H104.285L104.308 272.594C104.519 273.07 105.183 273.43 106.199 273.43C107.464 273.43 108.16 272.758 108.16 271.703V270.508H108.121C107.66 271.391 106.722 271.953 105.535 271.953C103.457 271.953 102.121 270.359 102.121 267.781V267.773C102.121 265.156 103.472 263.547 105.566 263.547C106.738 263.547 107.644 264.172 108.113 265.125H108.16V263.719H110.105V271.766C110.105 273.641 108.597 274.898 106.199 274.898ZM106.144 270.453C107.355 270.453 108.167 269.43 108.167 267.82V267.812C108.167 266.211 107.347 265.188 106.144 265.188C104.894 265.188 104.105 266.195 104.105 267.805V267.812C104.105 269.445 104.894 270.453 106.144 270.453Z" fill="currentColor"/>
<path d="M96.7969 272V263.719H98.7422V265.148H98.7812C99.0391 264.148 99.7266 263.547 100.68 263.547C100.922 263.547 101.148 263.586 101.297 263.625V265.383C101.133 265.32 100.836 265.273 100.508 265.273C99.4062 265.273 98.7422 265.969 98.7422 267.195V272H96.7969Z" fill="currentColor"/>
<path d="M330.365 71V59.7266H332.311V71H330.365Z" fill="currentColor"/>
<path d="M324.573 71.1641C322.135 71.1641 320.565 69.5391 320.565 66.8594V66.8438C320.565 64.1875 322.159 62.5469 324.565 62.5469C326.979 62.5469 328.581 64.1719 328.581 66.8438V66.8594C328.581 69.5469 327.003 71.1641 324.573 71.1641ZM324.581 69.5938C325.807 69.5938 326.596 68.5938 326.596 66.8594V66.8438C326.596 65.1172 325.799 64.125 324.565 64.125C323.354 64.125 322.549 65.125 322.549 66.8438V66.8594C322.549 68.6016 323.338 69.5938 324.581 69.5938Z" fill="currentColor"/>
<path d="M314.28 71.1953C311.038 71.1953 308.991 68.9609 308.991 65.3594V65.3516C308.991 61.75 311.046 59.5312 314.28 59.5312C316.874 59.5312 318.78 61.1484 319.077 63.4453L319.085 63.5234H317.108L317.069 63.375C316.741 62.0859 315.749 61.2812 314.28 61.2812C312.312 61.2812 311.054 62.8516 311.054 65.3516V65.3594C311.054 67.8672 312.319 69.4453 314.28 69.4453C315.718 69.4453 316.726 68.6719 317.093 67.2812L317.116 67.2031H319.093L319.077 67.2812C318.788 69.5938 316.874 71.1953 314.28 71.1953Z" fill="currentColor"/>
<path d="M303.199 73.8984C301.003 73.8984 299.621 72.8984 299.386 71.6016L299.371 71.5312H301.285L301.308 71.5938C301.519 72.0703 302.183 72.4297 303.199 72.4297C304.464 72.4297 305.16 71.7578 305.16 70.7031V69.5078H305.121C304.66 70.3906 303.722 70.9531 302.535 70.9531C300.457 70.9531 299.121 69.3594 299.121 66.7812V66.7734C299.121 64.1562 300.472 62.5469 302.566 62.5469C303.738 62.5469 304.644 63.1719 305.113 64.125H305.16V62.7188H307.105V70.7656C307.105 72.6406 305.597 73.8984 303.199 73.8984ZM303.144 69.4531C304.355 69.4531 305.167 68.4297 305.167 66.8203V66.8125C305.167 65.2109 304.347 64.1875 303.144 64.1875C301.894 64.1875 301.105 65.1953 301.105 66.8047V66.8125C301.105 68.4453 301.894 69.4531 303.144 69.4531Z" fill="currentColor"/>
<path d="M293.797 71V62.7188H295.742V64.1484H295.781C296.039 63.1484 296.727 62.5469 297.68 62.5469C297.922 62.5469 298.148 62.5859 298.297 62.625V64.3828C298.133 64.3203 297.836 64.2734 297.508 64.2734C296.406 64.2734 295.742 64.9688 295.742 66.1953V71H293.797Z" fill="currentColor"/>
<path d="M267.456 71.1641C265.722 71.1641 264.902 70.4609 264.902 68.7578V64.2188H263.73V62.7188H264.902V60.6172H266.878V62.7188H268.417V64.2188H266.878V68.5938C266.878 69.4062 267.237 69.6641 267.948 69.6641C268.136 69.6641 268.284 69.6406 268.417 69.6328V71.0938C268.191 71.125 267.847 71.1641 267.456 71.1641Z" fill="currentColor"/>
<path d="M258.054 71V62.7188H260V64.1484H260.039C260.297 63.1484 260.984 62.5469 261.937 62.5469C262.179 62.5469 262.406 62.5859 262.554 62.625V64.3828C262.39 64.3203 262.093 64.2734 261.765 64.2734C260.664 64.2734 260 64.9688 260 66.1953V71H258.054Z" fill="currentColor"/>
<path d="M251.52 71.1406C249.863 71.1406 248.746 70.1172 248.746 68.6406V68.625C248.746 67.1562 249.887 66.2734 251.895 66.1484L254.059 66.0156V65.4453C254.059 64.6094 253.512 64.1016 252.527 64.1016C251.606 64.1016 251.043 64.5312 250.918 65.1406L250.902 65.2109H249.098L249.106 65.1172C249.223 63.6484 250.496 62.5469 252.598 62.5469C254.668 62.5469 256.004 63.6406 256.004 65.3047V71H254.059V69.7266H254.012C253.535 70.5938 252.613 71.1406 251.52 71.1406ZM250.684 68.5625C250.684 69.2422 251.246 69.6562 252.098 69.6562C253.215 69.6562 254.059 68.9141 254.059 67.9297V67.3047L252.168 67.4219C251.207 67.4844 250.684 67.8984 250.684 68.5547V68.5625Z" fill="currentColor"/>
<path d="M246.407 71.1641C244.672 71.1641 243.852 70.4609 243.852 68.7578V64.2188H242.68V62.7188H243.852V60.6172H245.829V62.7188H247.368V64.2188H245.829V68.5938C245.829 69.4062 246.188 69.6641 246.899 69.6641C247.087 69.6641 247.235 69.6406 247.368 69.6328V71.0938C247.141 71.125 246.797 71.1641 246.407 71.1641Z" fill="currentColor"/>
<path d="M237.13 71.1953C234.544 71.1953 232.841 69.9766 232.708 67.9531L232.7 67.8359H234.63L234.646 67.9297C234.794 68.8984 235.786 69.5 237.2 69.5C238.622 69.5 239.513 68.8672 239.513 67.8984V67.8906C239.513 67.0469 238.927 66.5938 237.474 66.2891L236.263 66.0391C234.044 65.5781 232.95 64.5469 232.95 62.8672V62.8594C232.958 60.875 234.7 59.5312 237.13 59.5312C239.591 59.5312 241.2 60.8281 241.318 62.7578L241.325 62.8906H239.396L239.38 62.7969C239.247 61.8125 238.38 61.2266 237.114 61.2266C235.794 61.2344 234.974 61.8516 234.974 62.75V62.7578C234.974 63.5547 235.591 64.0234 236.95 64.3047L238.169 64.5547C240.513 65.0391 241.536 65.9922 241.536 67.75V67.7578C241.536 69.8594 239.88 71.1953 237.13 71.1953Z" fill="currentColor"/>
<path d="M223.556 71V62.7188H225.502V64.0156H225.541C225.97 63.125 226.814 62.5469 228.072 62.5469C229.892 62.5469 230.931 63.7188 230.931 65.6406V71H228.986V66.0312C228.986 64.8516 228.439 64.1875 227.33 64.1875C226.213 64.1875 225.502 65 225.502 66.1953V71H223.556Z" fill="currentColor"/>
<path d="M220.451 61.5312C219.842 61.5312 219.365 61.0469 219.365 60.4688C219.365 59.875 219.842 59.3984 220.451 59.3984C221.061 59.3984 221.529 59.875 221.529 60.4688C221.529 61.0469 221.061 61.5312 220.451 61.5312ZM219.475 71V62.7188H221.42V71H219.475Z" fill="currentColor"/>
<path d="M209.479 71V59.7266H213.823C216.104 59.7266 217.659 61.2344 217.659 63.4922V63.5078C217.659 65.7578 216.104 67.2734 213.823 67.2734H211.495V71H209.479ZM213.323 61.375H211.495V65.6484H213.323C214.768 65.6484 215.612 64.8672 215.612 63.5156V63.5C215.612 62.1484 214.768 61.375 213.323 61.375Z" fill="currentColor"/>
<path d="M205.202 71V59.7266H207.147V71H205.202Z" fill="currentColor"/>
<path d="M199.41 71.1641C196.972 71.1641 195.402 69.5391 195.402 66.8594V66.8438C195.402 64.1875 196.996 62.5469 199.402 62.5469C201.816 62.5469 203.417 64.1719 203.417 66.8438V66.8594C203.417 69.5469 201.839 71.1641 199.41 71.1641ZM199.417 69.5938C200.644 69.5938 201.433 68.5938 201.433 66.8594V66.8438C201.433 65.1172 200.636 64.125 199.402 64.125C198.191 64.125 197.386 65.125 197.386 66.8438V66.8594C197.386 68.6016 198.175 69.5938 199.417 69.5938Z" fill="currentColor"/>
<path d="M190.453 71.1641C187.992 71.1641 186.453 69.5078 186.453 66.8516V66.8438C186.453 64.2031 188.016 62.5469 190.43 62.5469C192.609 62.5469 193.969 63.9297 194.086 65.5859L194.094 65.6484H192.258L192.242 65.5781C192.078 64.7734 191.484 64.125 190.453 64.125C189.227 64.125 188.438 65.1641 188.438 66.8594V66.8672C188.438 68.5938 189.234 69.5938 190.461 69.5938C191.445 69.5938 192.07 69.0078 192.25 68.1406L192.266 68.0703H194.102L194.094 68.125C193.945 69.8516 192.547 71.1641 190.453 71.1641Z" fill="currentColor"/>
<path d="M441.996 71.1641C439.902 71.1641 438.574 69.5234 438.574 66.8594V66.8516C438.574 64.1797 439.91 62.5469 441.988 62.5469C443.16 62.5469 444.106 63.1484 444.574 64.1406H444.621V59.7266H446.567V71H444.621V69.5938H444.574C444.106 70.5703 443.192 71.1641 441.996 71.1641ZM442.582 69.5234C443.785 69.5234 444.621 68.4844 444.621 66.8594V66.8516C444.621 65.2344 443.777 64.1875 442.582 64.1875C441.34 64.1875 440.559 65.2031 440.559 66.8516V66.8594C440.559 68.5078 441.332 69.5234 442.582 69.5234Z" fill="currentColor"/>
<path d="M429.501 71V62.7188H431.446V64.0156H431.485C431.915 63.125 432.758 62.5469 434.016 62.5469C435.837 62.5469 436.876 63.7188 436.876 65.6406V71H434.93V66.0312C434.93 64.8516 434.383 64.1875 433.274 64.1875C432.157 64.1875 431.446 65 431.446 66.1953V71H429.501Z" fill="currentColor"/>
<path d="M420.169 71V59.7266H427.466V61.4219H422.185V64.4609H427.177V66.0938H422.185V69.3047H427.466V71H420.169Z" fill="currentColor"/>
<path d="M410.556 71V62.7188H412.502V64.0156H412.541C412.97 63.125 413.814 62.5469 415.072 62.5469C416.892 62.5469 417.931 63.7188 417.931 65.6406V71H415.986V66.0312C415.986 64.8516 415.439 64.1875 414.33 64.1875C413.213 64.1875 412.502 65 412.502 66.1953V71H410.556Z" fill="currentColor"/>
<path d="M407.451 61.5312C406.842 61.5312 406.365 61.0469 406.365 60.4688C406.365 59.875 406.842 59.3984 407.451 59.3984C408.061 59.3984 408.529 59.875 408.529 60.4688C408.529 61.0469 408.061 61.5312 407.451 61.5312ZM406.475 71V62.7188H408.42V71H406.475Z" fill="currentColor"/>
<path d="M396.479 71V59.7266H400.823C403.104 59.7266 404.659 61.2344 404.659 63.4922V63.5078C404.659 65.7578 403.104 67.2734 400.823 67.2734H398.495V71H396.479ZM400.323 61.375H398.495V65.6484H400.323C401.768 65.6484 402.612 64.8672 402.612 63.5156V63.5C402.612 62.1484 401.768 61.375 400.323 61.375Z" fill="currentColor"/>
<path d="M392.202 71V59.7266H394.147V71H392.202Z" fill="currentColor"/>
<path d="M386.41 71.1641C383.972 71.1641 382.402 69.5391 382.402 66.8594V66.8438C382.402 64.1875 383.996 62.5469 386.402 62.5469C388.816 62.5469 390.417 64.1719 390.417 66.8438V66.8594C390.417 69.5469 388.839 71.1641 386.41 71.1641ZM386.417 69.5938C387.644 69.5938 388.433 68.5938 388.433 66.8594V66.8438C388.433 65.1172 387.636 64.125 386.402 64.125C385.191 64.125 384.386 65.125 384.386 66.8438V66.8594C384.386 68.6016 385.175 69.5938 386.417 69.5938Z" fill="currentColor"/>
<path d="M377.453 71.1641C374.992 71.1641 373.453 69.5078 373.453 66.8516V66.8438C373.453 64.2031 375.016 62.5469 377.43 62.5469C379.609 62.5469 380.969 63.9297 381.086 65.5859L381.094 65.6484H379.258L379.242 65.5781C379.078 64.7734 378.484 64.125 377.453 64.125C376.227 64.125 375.438 65.1641 375.438 66.8594V66.8672C375.438 68.5938 376.234 69.5938 377.461 69.5938C378.445 69.5938 379.07 69.0078 379.25 68.1406L379.266 68.0703H381.102L381.094 68.125C380.945 69.8516 379.547 71.1641 377.453 71.1641Z" fill="currentColor"/>
<path d="M146.675 184.164C144.941 184.164 144.12 183.461 144.12 181.758V177.219H142.948V175.719H144.12V173.617H146.097V175.719H147.636V177.219H146.097V181.594C146.097 182.406 146.456 182.664 147.167 182.664C147.355 182.664 147.503 182.641 147.636 182.633V184.094C147.409 184.125 147.066 184.164 146.675 184.164Z" fill="currentColor"/>
<path d="M137.273 184V175.719H139.218V177.148H139.258C139.515 176.148 140.203 175.547 141.156 175.547C141.398 175.547 141.625 175.586 141.773 175.625V177.383C141.609 177.32 141.312 177.273 140.984 177.273C139.883 177.273 139.218 177.969 139.218 179.195V184H137.273Z" fill="currentColor"/>
<path d="M130.738 184.141C129.082 184.141 127.965 183.117 127.965 181.641V181.625C127.965 180.156 129.106 179.273 131.113 179.148L133.277 179.016V178.445C133.277 177.609 132.731 177.102 131.746 177.102C130.824 177.102 130.262 177.531 130.137 178.141L130.121 178.211H128.317L128.324 178.117C128.442 176.648 129.715 175.547 131.817 175.547C133.887 175.547 135.223 176.641 135.223 178.305V184H133.277V182.727H133.231C132.754 183.594 131.832 184.141 130.738 184.141ZM129.902 181.562C129.902 182.242 130.465 182.656 131.317 182.656C132.434 182.656 133.277 181.914 133.277 180.93V180.305L131.387 180.422C130.426 180.484 129.902 180.898 129.902 181.555V181.562Z" fill="currentColor"/>
<path d="M125.626 184.164C123.891 184.164 123.071 183.461 123.071 181.758V177.219H121.899V175.719H123.071V173.617H125.047V175.719H126.587V177.219H125.047V181.594C125.047 182.406 125.407 182.664 126.118 182.664C126.305 182.664 126.454 182.641 126.587 182.633V184.094C126.36 184.125 126.016 184.164 125.626 184.164Z" fill="currentColor"/>
<path d="M116.349 184.195C113.763 184.195 112.06 182.977 111.927 180.953L111.919 180.836H113.849L113.864 180.93C114.013 181.898 115.005 182.5 116.419 182.5C117.841 182.5 118.732 181.867 118.732 180.898V180.891C118.732 180.047 118.146 179.594 116.693 179.289L115.482 179.039C113.263 178.578 112.169 177.547 112.169 175.867V175.859C112.177 173.875 113.919 172.531 116.349 172.531C118.81 172.531 120.419 173.828 120.536 175.758L120.544 175.891H118.614L118.599 175.797C118.466 174.812 117.599 174.227 116.333 174.227C115.013 174.234 114.193 174.852 114.193 175.75V175.758C114.193 176.555 114.81 177.023 116.169 177.305L117.388 177.555C119.732 178.039 120.755 178.992 120.755 180.75V180.758C120.755 182.859 119.099 184.195 116.349 184.195Z" fill="currentColor"/>
<path d="M102.775 184V175.719H104.72V177.016H104.759C105.189 176.125 106.033 175.547 107.291 175.547C109.111 175.547 110.15 176.719 110.15 178.641V184H108.205V179.031C108.205 177.852 107.658 177.188 106.548 177.188C105.431 177.188 104.72 178 104.72 179.195V184H102.775Z" fill="currentColor"/>
<path d="M99.67 174.531C99.0606 174.531 98.584 174.047 98.584 173.469C98.584 172.875 99.0606 172.398 99.67 172.398C100.279 172.398 100.748 172.875 100.748 173.469C100.748 174.047 100.279 174.531 99.67 174.531ZM98.6934 184V175.719H100.639V184H98.6934Z" fill="currentColor"/>
<path d="M88.6978 184V172.727H93.0416C95.3228 172.727 96.8775 174.234 96.8775 176.492V176.508C96.8775 178.758 95.3228 180.273 93.0416 180.273H90.7134V184H88.6978ZM92.5416 174.375H90.7134V178.648H92.5416C93.9869 178.648 94.8306 177.867 94.8306 176.516V176.5C94.8306 175.148 93.9869 174.375 92.5416 174.375Z" fill="currentColor"/>
<path d="M77.4366 184L75.1944 175.719H77.1475L78.546 182.078H78.585L80.2022 175.719H82.0694L83.6866 182.078H83.7335L85.1319 175.719H87.0538L84.8116 184H82.7647L81.1319 177.945H81.0928L79.4678 184H77.4366Z" fill="currentColor"/>
<path d="M70.1284 184.164C67.6909 184.164 66.1206 182.539 66.1206 179.859V179.844C66.1206 177.188 67.7144 175.547 70.1206 175.547C72.5347 175.547 74.1362 177.172 74.1362 179.844V179.859C74.1362 182.547 72.5581 184.164 70.1284 184.164ZM70.1362 182.594C71.3628 182.594 72.1519 181.594 72.1519 179.859V179.844C72.1519 178.117 71.355 177.125 70.1206 177.125C68.9097 177.125 68.105 178.125 68.105 179.844V179.859C68.105 181.602 68.894 182.594 70.1362 182.594Z" fill="currentColor"/>
<path d="M60.7969 184V175.719H62.7422V177.148H62.7812C63.0391 176.148 63.7266 175.547 64.6797 175.547C64.9219 175.547 65.1484 175.586 65.2969 175.625V177.383C65.1328 177.32 64.8359 177.273 64.5078 177.273C63.4062 177.273 62.7422 177.969 62.7422 179.195V184H60.7969Z" fill="currentColor"/>
<path d="M142.215 321.164C140.121 321.164 138.793 319.523 138.793 316.859V316.852C138.793 314.18 140.129 312.547 142.207 312.547C143.379 312.547 144.324 313.148 144.793 314.141H144.84V309.727H146.785V321H144.84V319.594H144.793C144.324 320.57 143.41 321.164 142.215 321.164ZM142.801 319.523C144.004 319.523 144.84 318.484 144.84 316.859V316.852C144.84 315.234 143.996 314.188 142.801 314.188C141.559 314.188 140.777 315.203 140.777 316.852V316.859C140.777 318.508 141.551 319.523 142.801 319.523Z" fill="currentColor"/>
<path d="M129.719 321V312.719H131.665V314.016H131.704C132.133 313.125 132.977 312.547 134.235 312.547C136.055 312.547 137.094 313.719 137.094 315.641V321H135.149V316.031C135.149 314.852 134.602 314.188 133.493 314.188C132.376 314.188 131.665 315 131.665 316.195V321H129.719Z" fill="currentColor"/>
<path d="M120.388 321V309.727H127.685V311.422H122.403V314.461H127.396V316.094H122.403V319.305H127.685V321H120.388Z" fill="currentColor"/>
<path d="M110.775 321V312.719H112.72V314.016H112.759C113.189 313.125 114.033 312.547 115.291 312.547C117.111 312.547 118.15 313.719 118.15 315.641V321H116.205V316.031C116.205 314.852 115.658 314.188 114.548 314.188C113.431 314.188 112.72 315 112.72 316.195V321H110.775Z" fill="currentColor"/>
<path d="M107.67 311.531C107.061 311.531 106.584 311.047 106.584 310.469C106.584 309.875 107.061 309.398 107.67 309.398C108.279 309.398 108.748 309.875 108.748 310.469C108.748 311.047 108.279 311.531 107.67 311.531ZM106.693 321V312.719H108.639V321H106.693Z" fill="currentColor"/>
<path d="M96.6978 321V309.727H101.042C103.323 309.727 104.878 311.234 104.878 313.492V313.508C104.878 315.758 103.323 317.273 101.042 317.273H98.7134V321H96.6978ZM100.542 311.375H98.7134V315.648H100.542C101.987 315.648 102.831 314.867 102.831 313.516V313.5C102.831 312.148 101.987 311.375 100.542 311.375Z" fill="currentColor"/>
<path d="M85.4366 321L83.1944 312.719H85.1475L86.546 319.078H86.585L88.2022 312.719H90.0694L91.6866 319.078H91.7335L93.1319 312.719H95.0538L92.8116 321H90.7647L89.1319 314.945H89.0928L87.4678 321H85.4366Z" fill="currentColor"/>
<path d="M78.1284 321.164C75.6909 321.164 74.1206 319.539 74.1206 316.859V316.844C74.1206 314.188 75.7144 312.547 78.1206 312.547C80.5347 312.547 82.1362 314.172 82.1362 316.844V316.859C82.1362 319.547 80.5581 321.164 78.1284 321.164ZM78.1362 319.594C79.3628 319.594 80.1519 318.594 80.1519 316.859V316.844C80.1519 315.117 79.355 314.125 78.1206 314.125C76.9097 314.125 76.105 315.125 76.105 316.844V316.859C76.105 318.602 76.894 319.594 78.1362 319.594Z" fill="currentColor"/>
<path d="M68.7969 321V312.719H70.7422V314.148H70.7812C71.0391 313.148 71.7266 312.547 72.6797 312.547C72.9219 312.547 73.1484 312.586 73.2969 312.625V314.383C73.1328 314.32 72.8359 314.273 72.5078 314.273C71.4062 314.273 70.7422 314.969 70.7422 316.195V321H68.7969Z" fill="currentColor"/>
<path d="M248.854 299.854C249.049 299.658 249.049 299.342 248.854 299.146L245.672 295.964C245.476 295.769 245.16 295.769 244.964 295.964C244.769 296.16 244.769 296.476 244.964 296.672L247.793 299.5L244.964 302.328C244.769 302.524 244.769 302.84 244.964 303.036C245.16 303.231 245.476 303.231 245.672 303.036L248.854 299.854ZM169 317.5H203.5V316.5H169V317.5ZM208 313V303.5H207V313H208ZM211.5 300H248.5V299H211.5V300ZM208 303.5C208 301.567 209.567 300 211.5 300V299C209.015 299 207 301.015 207 303.5H208ZM203.5 317.5C205.985 317.5 208 315.485 208 313H207C207 314.933 205.433 316.5 203.5 316.5V317.5Z" fill="currentColor"/>
<circle cx="166" cy="317" r="3" stroke="currentColor"/>
<path d="M245.354 249.354C245.549 249.158 245.549 248.842 245.354 248.646L242.172 245.464C241.976 245.269 241.66 245.269 241.464 245.464C241.269 245.66 241.269 245.976 241.464 246.172L244.293 249L241.464 251.828C241.269 252.024 241.269 252.34 241.464 252.536C241.66 252.731 241.976 252.731 242.172 252.536L245.354 249.354ZM166 268.5H200.303V267.5H166V268.5ZM204.803 264V253H203.803V264H204.803ZM208.303 249.5H245V248.5H208.303V249.5ZM204.803 253C204.803 251.067 206.37 249.5 208.303 249.5V248.5C205.818 248.5 203.803 250.515 203.803 253H204.803ZM200.303 268.5C202.788 268.5 204.803 266.485 204.803 264H203.803C203.803 265.933 202.236 267.5 200.303 267.5V268.5Z" fill="currentColor"/>
<circle cx="163" cy="268" r="3" stroke="currentColor"/>
<path d="M248.854 200.854C249.049 200.658 249.049 200.342 248.854 200.146L245.672 196.964C245.476 196.769 245.16 196.769 244.964 196.964C244.769 197.16 244.769 197.476 244.964 197.672L247.793 200.5L244.964 203.328C244.769 203.524 244.769 203.84 244.964 204.036C245.16 204.231 245.476 204.231 245.672 204.036L248.854 200.854ZM165 178.5H201.5V177.5H165V178.5ZM205 182V196.5H206V182H205ZM209.5 201H248.5V200H209.5V201ZM205 196.5C205 198.985 207.015 201 209.5 201V200C207.567 200 206 198.433 206 196.5H205ZM201.5 178.5C203.433 178.5 205 180.067 205 182H206C206 179.515 203.985 177.5 201.5 177.5V178.5Z" fill="currentColor"/>
<circle cx="162" cy="178" r="3" stroke="currentColor"/>
<path d="M319.146 177.854C319.342 178.049 319.658 178.049 319.854 177.854L323.036 174.672C323.231 174.476 323.231 174.16 323.036 173.964C322.84 173.769 322.524 173.769 322.328 173.964L319.5 176.793L316.672 173.964C316.476 173.769 316.16 173.769 315.964 173.964C315.769 174.16 315.769 174.476 315.964 174.672L319.146 177.854ZM319 93V177.5H320V93H319Z" fill="currentColor"/>
<circle cx="319.5" cy="90" r="3" stroke="currentColor"/>
<path d="M369.646 177.854C369.842 178.049 370.158 178.049 370.354 177.854L373.536 174.672C373.731 174.476 373.731 174.16 373.536 173.964C373.34 173.769 373.024 173.769 372.828 173.964L370 176.793L367.172 173.964C366.976 173.769 366.66 173.769 366.464 173.964C366.269 174.16 366.269 174.476 366.464 174.672L369.646 177.854ZM370.5 177.5V142H369.5V177.5H370.5ZM374 138.5H406.474V137.5H374V138.5ZM410.974 134V101H409.974V134H410.974ZM406.474 138.5C408.96 138.5 410.974 136.485 410.974 134H409.974C409.974 135.933 408.407 137.5 406.474 137.5V138.5ZM370.5 142C370.5 140.067 372.067 138.5 374 138.5V137.5C371.515 137.5 369.5 139.515 369.5 142H370.5Z" fill="currentColor"/>
<circle cx="410" cy="98" r="3" stroke="currentColor"/>
<path d="M270.354 177.854C270.158 178.049 269.842 178.049 269.646 177.854L266.464 174.672C266.269 174.476 266.269 174.16 266.464 173.964C266.66 173.769 266.976 173.769 267.172 173.964L270 176.793L272.828 173.964C273.024 173.769 273.34 173.769 273.536 173.964C273.731 174.16 273.731 174.476 273.536 174.672L270.354 177.854ZM269.5 177.5V142H270.5V177.5H269.5ZM266 138.5H233.526V137.5H266V138.5ZM229.026 134V101H230.026V134H229.026ZM233.526 138.5C231.04 138.5 229.026 136.485 229.026 134H230.026C230.026 135.933 231.593 137.5 233.526 137.5V138.5ZM269.5 142C269.5 140.067 267.933 138.5 266 138.5V137.5C268.485 137.5 270.5 139.515 270.5 142H269.5Z" fill="currentColor"/>
<circle cx="3" cy="3" r="3" transform="matrix(-1 0 0 1 233 95)" stroke="currentColor"/>
<defs>
<clipPath id="clip0_20_561">
<rect x="247.5" y="177.5" width="145" height="145" rx="40" fill="white"/>
</clipPath>
</defs>
</svg>
